# xmcd CD database file
#
# Track frame offsets:
#	150
#	15407
#	26094
#	36845
#	56030
#	79490
#	94475
#	106650
#	121702
#	133722
#	152212
#	166100
#
# Disc length: 2431 seconds
#
# Revision: 2
# Processed by: cddbd v1.5.2PL0 Copyright (c) Steve Scherf et al.
# Submitted via: CDex 1.70beta2
#
DISCID=93097d0c
DTITLE=Bill LeGate - King of The Roving Cowboys
DYEAR=1994
DGENRE=Country
TTITLE0=Hank's Gonna Rise Again
TTITLE1=#1 Heartbreakin' Fool
TTITLE2=If It Ain't Bad Luck
TTITLE3=A Raging Storm (within my heart)
TTITLE4=Strawberry Roan
TTITLE5=The Silver Eagle
TTITLE6=Put 'Em All To Shame
TTITLE7=A Battlefield In Nam
TTITLE8=I'll Just Dream
TTITLE9=King of The Roving Cowboys
TTITLE10=Good Hard Thinkin'
TTITLE11=Will You Take Me
EXTD=\tProduced By Jim Casey for\n\t  Prairie Wind Productions\n\t   Nashville, Tennessee\n\nCredits:\nKip Paxton - Bass\nPatti Craft - Piano and Keyboards\nDave Lawbaugh - Drums\nKerry Marx - Electric Guitar\nBill LeGate - Lead, Acoustic Rythm\nDavid Ru
EXTD=ssell - Fiddle\nKathy Chiovola - Vocals\nJim Casey - Vocals\nDoyle Grisham - Acoustic, Dobro and Steel\n YEAR: 1994
EXTT0=
EXTT1=
EXTT2=
EXTT3=
EXTT4=
EXTT5=
EXTT6=
EXTT7=
EXTT8=
EXTT9=
EXTT10=
EXTT11=
PLAYORDER=
